<svg xmlns="http://www.w3.org/2000/svg" viewBox="0 0 460 70" width="460" height="70">
  <!-- Outer frame -->
  <rect x="4" y="4" width="440" height="40" rx="3" fill="none" stroke="#3b2d5e" stroke-width="1.2" stroke-dasharray="4,2"/>
  <text x="10" y="14" font-family="sans-serif" font-size="7" fill="#3b2d5e" font-style="italic">DocumentBar</text>
  <!-- Tab (active) -->
  <rect x="10" y="18" width="120" height="20" rx="2" fill="#5b6abf" opacity="0.12" stroke="#5b6abf" stroke-width="0.8"/>
  <rect x="14" y="22" width="10" height="10" rx="2" fill="#5b6abf" opacity="0.25"/>
  <text x="28" y="31" font-family="sans-serif" font-size="8" fill="#2d2640" font-weight="bold">Title</text>
  <text x="110" y="31" font-family="sans-serif" font-size="9" fill="#8b5fbf" text-anchor="middle">×</text>
  <!-- Active indicator -->
  <rect x="10" y="38" width="120" height="2" rx="1" fill="#5b6abf"/>
  <!-- Tab (inactive) -->
  <rect x="134" y="18" width="110" height="20" rx="2" fill="#fffffc" stroke="#d8cfe8" stroke-width="0.5"/>
  <rect x="138" y="22" width="10" height="10" rx="2" fill="#d8cfe8" opacity="0.3"/>
  <text x="152" y="31" font-family="sans-serif" font-size="8" fill="#2d2640">Title</text>
  <text x="228" y="31" font-family="sans-serif" font-size="9" fill="#d8cfe8" text-anchor="middle">×</text>
  <!-- Tab (inactive 2) -->
  <rect x="248" y="18" width="110" height="20" rx="2" fill="#fffffc" stroke="#d8cfe8" stroke-width="0.5"/>
  <rect x="252" y="22" width="10" height="10" rx="2" fill="#d8cfe8" opacity="0.3"/>
  <text x="266" y="31" font-family="sans-serif" font-size="8" fill="#2d2640">Title</text>
  <text x="342" y="31" font-family="sans-serif" font-size="9" fill="#d8cfe8" text-anchor="middle">×</text>
  <!-- Legend -->
  <rect x="10" y="54" width="10" height="8" rx="1" fill="#5b6abf" opacity="0.15"/>
  <text x="24" y="61" font-family="sans-serif" font-size="7" fill="#2d2640">Active tab</text>
  <rect x="90" y="54" width="10" height="8" rx="1" fill="#fffffc" stroke="#d8cfe8" stroke-width="0.4"/>
  <text x="104" y="61" font-family="sans-serif" font-size="7" fill="#2d2640">Inactive tab</text>
  <rect x="180" y="54" width="10" height="2" rx="1" fill="#5b6abf"/>
  <text x="194" y="61" font-family="sans-serif" font-size="7" fill="#2d2640">Active indicator</text>
  <rect x="280" y="54" width="8" height="8" rx="2" fill="#d8cfe8" opacity="0.3"/>
  <text x="292" y="61" font-family="sans-serif" font-size="7" fill="#2d2640">Icon</text>
  <text x="320" y="61" font-family="sans-serif" font-size="9" fill="#8b5fbf">×</text>
  <text x="332" y="61" font-family="sans-serif" font-size="7" fill="#2d2640">Close btn</text>
</svg>
