<svg xmlns="http://www.w3.org/2000/svg" viewBox="0 0 320 160" width="320" height="160">
  <!-- Outer frame -->
  <rect x="4" y="4" width="280" height="120" rx="4" fill="none" stroke="#3b2d5e" stroke-width="1.2" stroke-dasharray="4,2"/>
  <text x="10" y="14" font-family="sans-serif" font-size="7" fill="#3b2d5e" font-style="italic">ListWidget</text>
  <!-- Item 0 -->
  <rect x="10" y="18" width="268" height="22" rx="2" fill="#fffffc" stroke="#d8cfe8" stroke-width="0.5"/>
  <rect x="14" y="22" width="14" height="14" rx="2" fill="#d8cfe8" opacity="0.35"/>
  <text x="21" y="33" font-family="sans-serif" font-size="8" fill="#3b2d5e" text-anchor="middle">◎</text>
  <text x="40" y="33" font-family="sans-serif" font-size="9" fill="#2d2640">UiNode subtree content</text>
  <text x="284" y="33" font-family="sans-serif" font-size="7" fill="#8b5fbf">[0]</text>
  <!-- Item 1 (selected) -->
  <rect x="10" y="42" width="268" height="22" rx="2" fill="#5b6abf" opacity="0.18" stroke="#5b6abf" stroke-width="0.8"/>
  <rect x="14" y="46" width="14" height="14" rx="2" fill="#5b6abf" opacity="0.3"/>
  <text x="21" y="57" font-family="sans-serif" font-size="8" fill="#fffffc" text-anchor="middle">◎</text>
  <text x="40" y="57" font-family="sans-serif" font-size="9" fill="#2d2640" font-weight="bold">UiNode subtree content</text>
  <text x="284" y="57" font-family="sans-serif" font-size="7" fill="#5b6abf">[1] selected</text>
  <!-- Item 2 -->
  <rect x="10" y="66" width="268" height="22" rx="2" fill="#fffffc" stroke="#d8cfe8" stroke-width="0.5"/>
  <rect x="14" y="70" width="14" height="14" rx="2" fill="#d8cfe8" opacity="0.35"/>
  <text x="21" y="81" font-family="sans-serif" font-size="8" fill="#3b2d5e" text-anchor="middle">◎</text>
  <text x="40" y="81" font-family="sans-serif" font-size="9" fill="#2d2640">UiNode subtree content</text>
  <text x="284" y="81" font-family="sans-serif" font-size="7" fill="#8b5fbf">[2]</text>
  <!-- Ellipsis -->
  <text x="144" y="103" font-family="sans-serif" font-size="10" fill="#8b5fbf" text-anchor="middle">···</text>
  <!-- Legend -->
  <rect x="10" y="138" width="10" height="10" rx="1" fill="#fffffc" stroke="#d8cfe8" stroke-width="0.5"/>
  <text x="24" y="147" font-family="sans-serif" font-size="8" fill="#2d2640">Normal item</text>
  <rect x="105" y="138" width="10" height="10" rx="1" fill="#5b6abf" opacity="0.25"/>
  <text x="119" y="147" font-family="sans-serif" font-size="8" fill="#2d2640">Selected (PrimaryBg)</text>
  <rect x="225" y="138" width="10" height="10" rx="2" fill="#d8cfe8" opacity="0.4"/>
  <text x="239" y="147" font-family="sans-serif" font-size="8" fill="#2d2640">Icon slot</text>
</svg>
